<!DOCTYPE svg PUBLIC "-//W3C//DTD SVG 1.1//EN" "http://www.w3.org/Graphics/SVG/1.1/DTD/svg11.dtd">
<!-- Uploaded to: SVG Repo, www.svgrepo.com, Transformed by: SVG Repo Mixer Tools -->
<svg fill="#d31759" height="800px" width="800px" version="1.1" id="Layer_1" xmlns="http://www.w3.org/2000/svg" xmlns:xlink="http://www.w3.org/1999/xlink" viewBox="-25.6 -25.6 563.20 563.20" xml:space="preserve" stroke="#d31759">
<g id="SVGRepo_bgCarrier" stroke-width="0"/>
<g id="SVGRepo_tracerCarrier" stroke-linecap="round" stroke-linejoin="round" stroke="#CCCCCC" stroke-width="10.24"> <g> <g> <g> <path d="M186.381,224.495c4.353-0.992,7.077-5.325,6.086-9.678c-2.545-11.17-3.835-22.701-3.835-34.27 c0-84.696,68.904-153.6,153.6-153.6s153.599,68.904,153.599,153.6s-68.904,153.6-153.6,153.6c-6.861,0-13.763-0.457-20.514-1.357 c-4.426-0.594-8.492,2.519-9.081,6.945c-0.591,4.425,2.519,8.492,6.945,9.081c7.458,0.995,15.08,1.499,22.652,1.499 c93.611,0,169.768-76.158,169.768-169.768S435.842,10.779,342.231,10.779S172.463,86.937,172.463,180.547 c0,12.776,1.426,25.514,4.239,37.861C177.694,222.762,182.03,225.486,186.381,224.495z"/> <path d="M301.81,406.905c0,16.345,13.297,29.642,29.642,29.642s29.642-13.297,29.642-29.642 c0-16.345-13.297-29.642-29.642-29.642C315.108,377.263,301.81,390.56,301.81,406.905z M344.926,406.905 c0,7.43-6.044,13.474-13.474,13.474s-13.474-6.044-13.474-13.474s6.044-13.474,13.474-13.474S344.926,399.475,344.926,406.905z"/> <path d="M97.01,336.842c0,54.978,44.727,99.705,99.705,99.705s99.705-44.727,99.705-99.705s-44.727-99.705-99.705-99.705 S97.01,281.864,97.01,336.842z M280.252,336.842c0,46.062-37.475,83.537-83.537,83.537c-46.062,0-83.537-37.475-83.537-83.537 c0-46.062,37.475-83.537,83.537-83.537C242.778,253.305,280.252,290.78,280.252,336.842z"/> <path d="M509.632,476.642l-21.558-21.558c-3.157-3.157-8.276-3.157-11.432,0c-3.157,3.157-3.157,8.276,0,11.432l7.758,7.758H51.2 c-7.43,0-13.474-6.044-13.474-13.474V27.601l7.758,7.758c3.157,3.157,8.276,3.157,11.432,0c3.157-3.157,3.157-8.276,0-11.432 L35.358,2.368c-3.157-3.157-8.276-3.157-11.432,0L2.368,23.926c-3.157,3.157-3.157,8.276,0,11.432 c3.157,3.157,8.276,3.157,11.432,0l7.758-7.758V460.8c0,16.345,13.297,29.642,29.642,29.642h433.199l-7.758,7.758 c-3.157,3.157-3.157,8.276,0,11.432c1.578,1.578,3.648,2.368,5.716,2.368s4.138-0.789,5.716-2.368l21.558-21.558 C512.79,484.918,512.79,479.798,509.632,476.642z"/> <path d="M110.484,156.295c25.26,0,45.811-20.55,45.811-45.811c0-25.26-20.551-45.81-45.811-45.81 c-25.259,0-45.81,20.55-45.81,45.81C64.673,135.745,85.223,156.295,110.484,156.295z M110.484,80.842 c16.345,0,29.642,13.297,29.642,29.642c0,16.345-13.297,29.642-29.642,29.642c-16.345,0-29.642-13.297-29.642-29.642 C80.842,94.139,94.139,80.842,110.484,80.842z"/> </g> </g> </g> </g>
<g id="SVGRepo_iconCarrier"> <g> <g> <g> <path d="M186.381,224.495c4.353-0.992,7.077-5.325,6.086-9.678c-2.545-11.17-3.835-22.701-3.835-34.27 c0-84.696,68.904-153.6,153.6-153.6s153.599,68.904,153.599,153.6s-68.904,153.6-153.6,153.6c-6.861,0-13.763-0.457-20.514-1.357 c-4.426-0.594-8.492,2.519-9.081,6.945c-0.591,4.425,2.519,8.492,6.945,9.081c7.458,0.995,15.08,1.499,22.652,1.499 c93.611,0,169.768-76.158,169.768-169.768S435.842,10.779,342.231,10.779S172.463,86.937,172.463,180.547 c0,12.776,1.426,25.514,4.239,37.861C177.694,222.762,182.03,225.486,186.381,224.495z"/> <path d="M301.81,406.905c0,16.345,13.297,29.642,29.642,29.642s29.642-13.297,29.642-29.642 c0-16.345-13.297-29.642-29.642-29.642C315.108,377.263,301.81,390.56,301.81,406.905z M344.926,406.905 c0,7.43-6.044,13.474-13.474,13.474s-13.474-6.044-13.474-13.474s6.044-13.474,13.474-13.474S344.926,399.475,344.926,406.905z"/> <path d="M97.01,336.842c0,54.978,44.727,99.705,99.705,99.705s99.705-44.727,99.705-99.705s-44.727-99.705-99.705-99.705 S97.01,281.864,97.01,336.842z M280.252,336.842c0,46.062-37.475,83.537-83.537,83.537c-46.062,0-83.537-37.475-83.537-83.537 c0-46.062,37.475-83.537,83.537-83.537C242.778,253.305,280.252,290.78,280.252,336.842z"/> <path d="M509.632,476.642l-21.558-21.558c-3.157-3.157-8.276-3.157-11.432,0c-3.157,3.157-3.157,8.276,0,11.432l7.758,7.758H51.2 c-7.43,0-13.474-6.044-13.474-13.474V27.601l7.758,7.758c3.157,3.157,8.276,3.157,11.432,0c3.157-3.157,3.157-8.276,0-11.432 L35.358,2.368c-3.157-3.157-8.276-3.157-11.432,0L2.368,23.926c-3.157,3.157-3.157,8.276,0,11.432 c3.157,3.157,8.276,3.157,11.432,0l7.758-7.758V460.8c0,16.345,13.297,29.642,29.642,29.642h433.199l-7.758,7.758 c-3.157,3.157-3.157,8.276,0,11.432c1.578,1.578,3.648,2.368,5.716,2.368s4.138-0.789,5.716-2.368l21.558-21.558 C512.79,484.918,512.79,479.798,509.632,476.642z"/> <path d="M110.484,156.295c25.26,0,45.811-20.55,45.811-45.811c0-25.26-20.551-45.81-45.811-45.81 c-25.259,0-45.81,20.55-45.81,45.81C64.673,135.745,85.223,156.295,110.484,156.295z M110.484,80.842 c16.345,0,29.642,13.297,29.642,29.642c0,16.345-13.297,29.642-29.642,29.642c-16.345,0-29.642-13.297-29.642-29.642 C80.842,94.139,94.139,80.842,110.484,80.842z"/> </g> </g> </g> </g>
</svg>